<svg xmlns="http://www.w3.org/2000/svg" viewBox="0 0 1086 545" fill="none" role="img" aria-label="WoT — World of Taxonomy">
  <title>World of Taxonomy</title>
  <path d="M108.161 449.945C98.4034 449.945 92.0711 445.481 89.1645 436.553L1.3433 177.761C-2.18616 167.173 1.23949 160.218 11.6202 156.896C21.7934 153.782 28.5409 157.207 31.8627 167.173L117.193 417.245H104.113L185.706 171.844C188.612 163.124 194.841 158.764 204.391 158.764C213.526 158.764 219.443 163.228 222.142 172.156L298.441 416.622H284.738L368.251 262.835C372.403 252.247 384.471 249.859 394.203 256.347C404.584 260.292 397.94 259.15 394.203 269.323L309.34 436.553C306.018 445.481 299.582 449.945 290.032 449.945C279.444 449.945 272.8 445.481 270.101 436.553L199.408 210.149H205.637L127.781 436.553C126.12 441.744 123.525 445.273 119.995 447.142C116.466 449.01 112.521 449.945 108.161 449.945Z" fill="#141414"></path>
  <rect x="755.114" y="84.4158" width="330.887" height="32.4399" rx="16.2199" fill="#141414"></rect>
  <rect x="937" y="97" width="353" height="33" rx="16.2199" transform="rotate(90 937 97)" fill="#141414"></rect>
  <path d="M592.086 39C601.044 39 608.306 46.2618 608.306 55.2197V110.892C684.661 117.061 745.773 177.189 753.467 253.104H822.525C831.483 253.104 838.746 260.365 838.746 269.323C838.746 278.281 831.483 285.543 822.525 285.543H753.467C745.773 361.457 684.661 421.584 608.306 427.753V483.426C608.306 492.384 601.044 499.646 592.086 499.646C583.128 499.646 575.866 492.384 575.866 483.426V427.095C502.56 418.145 444.667 359.295 437.192 285.543H384.471C375.513 285.543 368.251 278.281 368.251 269.323C368.251 260.365 375.513 253.104 384.471 253.104H437.192C444.667 179.351 502.56 120.5 575.866 111.55V55.2197C575.866 46.2618 583.128 39 592.086 39ZM595.33 143.513C525.847 143.513 469.521 199.84 469.521 269.322C469.521 338.805 525.847 395.133 595.33 395.133C664.813 395.133 721.141 338.805 721.141 269.322C721.14 199.84 664.813 143.513 595.33 143.513Z" fill="#141414"></path>
  <path d="M528.005 204.547C511.841 221.342 501.903 244.172 501.903 269.323C501.903 320.921 543.732 362.75 595.33 362.75C607.952 362.75 619.99 360.247 630.973 355.71C632.316 346.946 629.37 338.536 628.165 335.593C625.483 329.058 616.632 317.884 601.857 302.382C597.913 298.236 598.167 295.056 599.576 285.606L599.738 284.539C600.696 278.065 602.303 274.238 624.084 270.781C635.15 269.026 638.06 273.449 642.093 279.573C642.54 280.252 642.986 280.917 643.442 281.584C647.274 287.187 650.113 288.469 654.401 290.419C656.322 291.29 658.72 292.389 661.933 294.214C669.547 298.566 669.547 303.479 669.547 314.252V315.474C669.547 320.047 669.1 324.062 668.397 327.55C681.14 311.581 688.757 291.341 688.757 269.323C688.757 230.795 665.435 197.714 632.139 183.427C625.678 187.786 616.816 193.966 613.723 198.202C612.142 200.367 609.907 211.418 602.637 212.33C600.732 212.569 598.177 212.401 595.47 212.227C588.212 211.756 578.282 211.119 575.103 219.748C573.085 225.216 572.73 240.062 579.259 247.768C580.305 248.999 580.507 251.276 579.797 253.832C578.863 257.187 576.979 259.228 576.391 259.65C575.265 259.003 573.02 256.396 571.499 254.622C567.834 250.363 563.262 245.059 557.352 243.418C555.202 242.823 552.84 242.331 550.549 241.848C544.137 240.504 536.873 238.975 535.185 235.374C533.953 232.737 533.959 229.105 533.964 225.268C533.964 220.405 533.964 214.905 531.581 209.56C530.661 207.491 529.428 205.845 528.005 204.547ZM595.33 386.107C530.832 386.107 478.546 333.82 478.546 269.323C478.546 204.825 530.832 152.54 595.33 152.54C659.827 152.54 712.113 204.825 712.113 269.323C712.113 333.82 659.827 386.107 595.33 386.107Z" fill="#06B6D4"></path>
  <circle cx="591.5" cy="31.5" r="31.5" fill="#06B6D4"></circle>
  <circle cx="591.5" cy="513.5" r="31.5" fill="#06B6D4"></circle>
  <circle cx="849.5" cy="269.5" r="31.5" fill="#06B6D4"></circle>
</svg>