<svg role="img" aria-label="World of Taxonomy" width="1038" height="95" viewBox="0 0 1038 95" fill="none" xmlns="http://www.w3.org/2000/svg">
<title>World of Taxonomy</title>
<path d="M190.5 26.3281C190.083 24.7656 190.422 23.9844 191.516 23.9844H196.281C197.115 23.9844 197.674 24.5833 197.961 25.7812L206.672 63.3203C207.036 64.8307 207.44 66.4714 207.883 68.2422C208.352 70.013 208.755 71.6797 209.094 73.2422H209.289C209.549 71.7057 209.849 70.1823 210.188 68.6719C210.552 67.1615 210.956 65.3906 211.398 63.3594L220.305 26.0938C220.643 24.6875 221.477 23.9844 222.805 23.9844H228.195C229.523 23.9844 230.357 24.6875 230.695 26.0938L239.602 63.3594C240.044 65.3906 240.435 67.1615 240.773 68.6719C241.138 70.1823 241.451 71.7057 241.711 73.2422H241.906C242.245 71.6797 242.635 70.013 243.078 68.2422C243.547 66.4714 243.964 64.8307 244.328 63.3203L253.039 25.7812C253.326 24.5833 253.885 23.9844 254.719 23.9844H259.484C260.578 23.9844 260.917 24.7656 260.5 26.3281L247.062 76.9922C246.542 78.9974 245.578 80 244.172 80H239.289C237.987 80 237.062 78.9062 236.516 76.7188L227.102 39.2578C226.633 37.3568 226.294 35.8073 226.086 34.6094C225.878 33.3854 225.695 32.1224 225.539 30.8203H225.461C225.305 32.1224 225.122 33.3854 224.914 34.6094C224.706 35.8073 224.367 37.3568 223.898 39.2578L214.484 76.7188C213.938 78.9062 213.013 80 211.711 80H206.828C205.422 80 204.458 78.9974 203.938 76.9922L190.5 26.3281ZM262.944 51.9922C262.944 42.8776 265.183 35.7422 269.662 30.5859C274.168 25.4036 280.652 22.8125 289.116 22.8125C297.579 22.8125 304.051 25.4036 308.53 30.5859C313.035 35.7422 315.287 42.8776 315.287 51.9922C315.287 61.1068 313.035 68.2552 308.53 73.4375C304.051 78.5938 297.579 81.1719 289.116 81.1719C280.652 81.1719 274.168 78.5938 269.662 73.4375C265.183 68.2552 262.944 61.1068 262.944 51.9922ZM270.952 51.9922C270.952 59.2839 272.449 64.9609 275.444 69.0234C278.439 73.0599 282.996 75.0781 289.116 75.0781C295.235 75.0781 299.793 73.0599 302.787 69.0234C305.782 64.9609 307.28 59.2839 307.28 51.9922C307.28 44.7005 305.782 39.0365 302.787 35C299.793 30.9375 295.235 28.9062 289.116 28.9062C282.996 28.9062 278.439 30.9375 275.444 35C272.449 39.0365 270.952 44.7005 270.952 51.9922ZM325.075 80C323.773 80 323.122 79.2839 323.122 77.8516V26.1328C323.122 24.7005 323.773 23.9844 325.075 23.9844H343.942C351.468 23.9844 356.911 25.3906 360.27 28.2031C363.656 31.0156 365.348 34.7266 365.348 39.3359C365.348 43.3984 363.981 46.8099 361.247 49.5703C358.539 52.3307 354.671 53.9193 349.645 54.3359V54.4141C352.302 56.3932 354.059 57.9036 354.919 58.9453C355.778 59.9609 356.742 61.3411 357.809 63.0859L366.637 77.4219C367.705 79.1406 367.471 80 365.934 80H361.481C360.257 80 359.346 79.4922 358.747 78.4766L350.622 64.5312C349.45 62.526 347.77 60.5599 345.583 58.6328C343.395 56.7057 340.674 55.7422 337.419 55.7422H330.622V77.8516C330.622 79.2839 329.971 80 328.669 80H325.075ZM330.622 49.3359H341.911C346.989 49.3359 350.895 48.6719 353.63 47.3438C356.364 45.9896 357.731 43.1641 357.731 38.8672C357.731 35.5859 356.481 33.3594 353.981 32.1875C351.481 30.9896 348.083 30.3906 343.786 30.3906H330.622V49.3359ZM377.128 80C375.826 80 375.175 79.2839 375.175 77.8516V26.1328C375.175 24.7005 375.826 23.9844 377.128 23.9844H380.722C382.024 23.9844 382.675 24.7005 382.675 26.1328V73.5938H408.573C410.006 73.5938 410.722 74.1797 410.722 75.3516V78.2422C410.722 79.4141 410.006 80 408.573 80H377.128ZM419.103 80C417.801 80 417.15 79.2839 417.15 77.8516V26.1328C417.15 24.7005 417.801 23.9844 419.103 23.9844H433.517C444.559 23.9844 452.228 26.4323 456.525 31.3281C460.848 36.1979 463.009 43.0599 463.009 51.9141C463.009 60.7682 460.848 67.6693 456.525 72.6172C452.228 77.5391 444.559 80 433.517 80H419.103ZM424.65 73.5938H433.166C441.759 73.5938 447.541 71.7708 450.509 68.125C453.504 64.4792 455.002 59.0755 455.002 51.9141C455.002 44.7526 453.504 39.362 450.509 35.7422C447.541 32.1224 441.759 30.3125 433.166 30.3125H424.65V73.5938ZM492.038 51.9922C492.038 42.8776 494.277 35.7422 498.756 30.5859C503.261 25.4036 509.746 22.8125 518.209 22.8125C526.673 22.8125 533.144 25.4036 537.623 30.5859C542.129 35.7422 544.381 42.8776 544.381 51.9922C544.381 61.1068 542.129 68.2552 537.623 73.4375C533.144 78.5938 526.673 81.1719 518.209 81.1719C509.746 81.1719 503.261 78.5938 498.756 73.4375C494.277 68.2552 492.038 61.1068 492.038 51.9922ZM500.045 51.9922C500.045 59.2839 501.543 64.9609 504.538 69.0234C507.532 73.0599 512.09 75.0781 518.209 75.0781C524.329 75.0781 528.886 73.0599 531.881 69.0234C534.876 64.9609 536.373 59.2839 536.373 51.9922C536.373 44.7005 534.876 39.0365 531.881 35C528.886 30.9375 524.329 28.9062 518.209 28.9062C512.09 28.9062 507.532 30.9375 504.538 35C501.543 39.0365 500.045 44.7005 500.045 51.9922ZM554.169 80C552.867 80 552.216 79.2839 552.216 77.8516V26.1328C552.216 24.7005 552.867 23.9844 554.169 23.9844H586.005C587.437 23.9844 588.153 24.5703 588.153 25.7422V28.6328C588.153 29.8047 587.437 30.3906 586.005 30.3906H559.716V48.9062H582.645C584.078 48.9062 584.794 49.4922 584.794 50.6641V53.5547C584.794 54.7266 584.078 55.3125 582.645 55.3125H559.716V77.8516C559.716 79.2839 559.065 80 557.763 80H554.169ZM616.517 30.7031C615.085 30.7031 614.369 30.1172 614.369 28.9453V25.7422C614.369 24.5703 615.085 23.9844 616.517 23.9844H657.845C659.278 23.9844 659.994 24.5703 659.994 25.7422V28.9453C659.994 30.1172 659.278 30.7031 657.845 30.7031H640.931V77.8516C640.931 79.2839 640.28 80 638.978 80H635.384C634.082 80 633.431 79.2839 633.431 77.8516V30.7031H616.517ZM655.641 80C654.286 80 653.935 79.1406 654.586 77.4219L674.039 26.3672C674.638 24.7786 675.497 23.9844 676.617 23.9844H682.086C683.206 23.9844 684.065 24.7786 684.664 26.3672L704.117 77.4219C704.768 79.1406 704.417 80 703.062 80H699.078C697.698 80 696.76 79.362 696.266 78.0859L691.383 65.1562H667.32L662.438 78.0859C661.943 79.362 661.005 80 659.625 80H655.641ZM669.781 58.75H688.922L682.945 43.125C682.398 41.6667 681.852 40.0521 681.305 38.2812C680.784 36.5104 680.159 33.9974 679.43 30.7422H679.273C678.544 33.9974 677.906 36.5104 677.359 38.2812C676.839 40.0521 676.305 41.6667 675.758 43.125L669.781 58.75ZM707.381 80C705.689 80 705.454 79.1406 706.678 77.4219L725.428 51.0938L708.006 26.5625C706.782 24.8438 707.017 23.9844 708.709 23.9844H713.514C714.66 23.9844 715.571 24.4922 716.248 25.5078L729.959 45.8984L743.67 25.5078C744.347 24.4922 745.259 23.9844 746.405 23.9844H751.209C752.902 23.9844 753.136 24.8438 751.912 26.5625L734.491 51.0938L753.241 77.4219C754.465 79.1406 754.23 80 752.537 80H747.694C746.548 80 745.636 79.4922 744.959 78.4766L729.959 56.2891L714.959 78.4766C714.282 79.4922 713.371 80 712.225 80H707.381ZM754.903 51.9922C754.903 42.8776 757.143 35.7422 761.622 30.5859C766.127 25.4036 772.611 22.8125 781.075 22.8125C789.539 22.8125 796.01 25.4036 800.489 30.5859C804.994 35.7422 807.247 42.8776 807.247 51.9922C807.247 61.1068 804.994 68.2552 800.489 73.4375C796.01 78.5938 789.539 81.1719 781.075 81.1719C772.611 81.1719 766.127 78.5938 761.622 73.4375C757.143 68.2552 754.903 61.1068 754.903 51.9922ZM762.911 51.9922C762.911 59.2839 764.408 64.9609 767.403 69.0234C770.398 73.0599 774.955 75.0781 781.075 75.0781C787.195 75.0781 791.752 73.0599 794.747 69.0234C797.742 64.9609 799.239 59.2839 799.239 51.9922C799.239 44.7005 797.742 39.0365 794.747 35C791.752 30.9375 787.195 28.9062 781.075 28.9062C774.955 28.9062 770.398 30.9375 767.403 35C764.408 39.0365 762.911 44.7005 762.911 51.9922ZM817.034 80C815.732 80 815.081 79.2839 815.081 77.8516V26.1328C815.081 24.7005 815.732 23.9844 817.034 23.9844H822.034C823.857 23.9844 825.159 24.6354 825.941 25.9375L850.394 66.9141H850.55C850.498 65.8724 850.472 64.8307 850.472 63.7891V26.1328C850.472 24.7005 851.123 23.9844 852.425 23.9844H856.019C857.321 23.9844 857.972 24.7005 857.972 26.1328V77.8516C857.972 79.2839 857.321 80 856.019 80H852.581C850.758 80 849.456 79.349 848.675 78.0469L822.659 34.5703H822.503C822.555 35.612 822.581 36.6536 822.581 37.6953V77.8516C822.581 79.2839 821.93 80 820.628 80H817.034ZM865.806 51.9922C865.806 42.8776 868.046 35.7422 872.525 30.5859C877.03 25.4036 883.515 22.8125 891.978 22.8125C900.442 22.8125 906.913 25.4036 911.392 30.5859C915.897 35.7422 918.15 42.8776 918.15 51.9922C918.15 61.1068 915.897 68.2552 911.392 73.4375C906.913 78.5938 900.442 81.1719 891.978 81.1719C883.515 81.1719 877.03 78.5938 872.525 73.4375C868.046 68.2552 865.806 61.1068 865.806 51.9922ZM873.814 51.9922C873.814 59.2839 875.311 64.9609 878.306 69.0234C881.301 73.0599 885.858 75.0781 891.978 75.0781C898.098 75.0781 902.655 73.0599 905.65 69.0234C908.645 64.9609 910.142 59.2839 910.142 51.9922C910.142 44.7005 908.645 39.0365 905.65 35C902.655 30.9375 898.098 28.9062 891.978 28.9062C885.858 28.9062 881.301 30.9375 878.306 35C875.311 39.0365 873.814 44.7005 873.814 51.9922ZM927.938 80C926.635 80 925.984 79.2839 925.984 77.8516V26.1328C925.984 24.7005 926.635 23.9844 927.938 23.9844H936.258C937.247 23.9844 937.99 24.7656 938.484 26.3281L949.656 61.3672C950.802 64.9609 951.479 67.1354 951.688 67.8906C951.896 68.6198 952.195 69.974 952.586 71.9531H952.82C953.211 69.974 953.51 68.6198 953.719 67.8906C953.927 67.1354 954.604 64.9609 955.75 61.3672L966.922 26.3281C967.417 24.7656 968.159 23.9844 969.148 23.9844H977.469C978.771 23.9844 979.422 24.7005 979.422 26.1328V77.8516C979.422 79.2839 978.771 80 977.469 80H973.875C972.573 80 971.922 79.2839 971.922 77.8516V36.875C971.922 35.8333 971.948 34.7917 972 33.75H971.844L957.43 77.6172C956.909 79.2057 956.049 80 954.852 80H950.555C949.357 80 948.497 79.2057 947.977 77.6172L933.562 33.75H933.406C933.458 34.7917 933.484 35.8333 933.484 36.875V77.8516C933.484 79.2839 932.833 80 931.531 80H927.938ZM987.452 26.5625C986.332 24.8438 986.683 23.9844 988.506 23.9844H992.881C994.027 23.9844 994.965 24.6224 995.694 25.8984L1005.62 42.9688C1006.71 44.8438 1007.65 46.4844 1008.43 47.8906C1009.21 49.2708 1009.96 50.7422 1010.69 52.3047H1010.85C1011.58 50.7422 1012.33 49.2708 1013.12 47.8906C1013.9 46.4844 1014.83 44.8438 1015.93 42.9688L1025.85 25.8984C1026.58 24.6224 1027.52 23.9844 1028.66 23.9844H1033.04C1034.86 23.9844 1035.21 24.8438 1034.09 26.5625L1014.52 56.9531V77.8516C1014.52 79.2839 1013.87 80 1012.57 80H1008.97C1007.67 80 1007.02 79.2839 1007.02 77.8516V56.9531L987.452 26.5625Z" fill="currentColor"></path>
<path d="M16.6708 80.3509C15.1668 80.3509 14.1908 79.6629 13.7428 78.2869L0.207072 38.3989C-0.336919 36.7669 0.191072 35.6949 1.79105 35.1829C3.35902 34.7029 4.399 35.2309 4.91099 36.7669L18.0628 75.3109H16.0468L28.6226 37.4869C29.0706 36.1429 30.0306 35.4709 31.5026 35.4709C32.9105 35.4709 33.8225 36.1589 34.2385 37.5349L45.9983 75.2149H43.8864L56.7581 51.5115C57.3981 49.8795 59.2581 49.5115 60.7581 50.5115C62.358 51.1195 61.3341 50.9435 60.7581 52.5115L47.6783 78.2869C47.1663 79.6629 46.1743 80.3509 44.7023 80.3509C43.0704 80.3509 42.0464 79.6629 41.6304 78.2869L30.7346 43.3909H31.6946L19.6948 78.2869C19.4388 79.0869 19.0388 79.6309 18.4948 79.9189C17.9508 80.2069 17.3428 80.3509 16.6708 80.3509Z" fill="currentColor"></path>
<rect x="116.385" y="24.0112" width="50.9991" height="5" rx="2.49998" fill="currentColor"></rect>
<rect x="144.417" y="25.9517" width="54.4084" height="5.08625" rx="2.49998" transform="rotate(90 144.417 25.9517)" fill="currentColor"></rect>
<path d="M91.2508 17.0116C92.6308 17.0123 93.7508 18.1314 93.7508 19.5116V28.0927C105.521 29.0416 114.941 38.3089 116.128 50.0106H126.766C128.147 50.0112 129.266 51.1303 129.266 52.5106C129.266 53.8907 128.146 55.01 126.766 55.0106H116.129C114.943 66.7134 105.522 75.9815 93.7508 76.9305V85.5116C93.7506 86.8917 92.6307 88.0109 91.2508 88.0116C89.8702 88.0116 88.751 86.8921 88.7508 85.5116V76.829C77.4539 75.4476 68.5331 66.3772 67.3816 55.0106H59.2488C57.8685 55.0104 56.75 53.8909 56.7498 52.5106C56.7498 51.1301 57.8683 50.0109 59.2488 50.0106H67.3816C68.5341 38.6453 77.4548 29.5766 88.7508 28.1952V19.5116C88.7508 18.1309 89.8701 17.0116 91.2508 17.0116ZM91.7556 33.12C81.0465 33.12 72.3641 41.802 72.364 52.5116C72.364 63.2212 81.0464 71.9032 91.7556 71.9032C102.465 71.9029 111.146 63.221 111.146 52.5116C111.146 41.8022 102.465 33.1203 91.7556 33.12Z" fill="currentColor"></path>
<path d="M81.3749 42.5276C78.8836 45.1164 77.3518 48.6352 77.3518 52.5117C77.3518 60.4647 83.7988 66.9117 91.7516 66.9117C93.697 66.9117 95.5524 66.526 97.2453 65.8267C97.4523 64.4758 96.9981 63.1796 96.8124 62.726C96.3991 61.7187 95.0349 59.9965 92.7576 57.6072C92.1497 56.9682 92.1888 56.478 92.4061 55.0215L92.4311 54.8569C92.5787 53.8592 92.8264 53.2693 96.1835 52.7364C97.889 52.466 98.3375 53.1477 98.9592 54.0916C99.028 54.1962 99.0967 54.2988 99.1671 54.4015C99.7577 55.2652 100.195 55.4626 100.856 55.7632C101.152 55.8975 101.522 56.0669 102.017 56.3482C103.191 57.0189 103.191 57.7762 103.191 59.4367V59.625C103.191 60.3298 103.122 60.9487 103.013 61.4863C104.977 59.025 106.151 55.9054 106.151 52.5117C106.151 46.5733 102.557 41.4745 97.4249 39.2724C96.4292 39.9444 95.0632 40.8968 94.5865 41.5497C94.3428 41.8834 93.9983 43.5867 92.8778 43.7273C92.5843 43.7641 92.1904 43.7383 91.7732 43.7115C90.6545 43.6388 89.124 43.5406 88.634 44.8706C88.323 45.7135 88.2683 48.0017 89.2747 49.1895C89.4358 49.3792 89.4669 49.7302 89.3575 50.124C89.2136 50.6412 88.9231 50.9558 88.8326 51.0208C88.6591 50.9211 88.3129 50.5193 88.0785 50.2459C87.5136 49.5894 86.809 48.7719 85.898 48.5189C85.5668 48.4272 85.2027 48.3513 84.8496 48.277C83.8612 48.0698 82.7417 47.8341 82.4816 47.2792C82.2917 46.8727 82.2925 46.3129 82.2933 45.7215C82.2933 44.9719 82.2933 44.1242 81.9261 43.3003C81.7842 42.9815 81.5942 42.7277 81.3749 42.5276ZM91.7516 70.5117C81.8106 70.5117 73.7519 62.4528 73.7519 52.5117C73.7519 42.5706 81.8106 34.5117 91.7516 34.5117C101.692 34.5117 109.751 42.5706 109.751 52.5117C109.751 62.4528 101.692 70.5117 91.7516 70.5117Z" fill="#06B6D4"></path>
<ellipse cx="91.1656" cy="15.8554" rx="4.85506" ry="4.85514" fill="#06B6D4"></ellipse>
<ellipse cx="91.1656" cy="90.1451" rx="4.85506" ry="4.85514" fill="#06B6D4"></ellipse>
<ellipse cx="130.928" cy="52.5375" rx="4.85506" ry="4.85514" fill="#06B6D4"></ellipse>
</svg>