<svg xmlns="http://www.w3.org/2000/svg" viewBox="0 0 334 334" fill="none" role="img" aria-label="WoT favicon">
  <title>World of Taxonomy</title>
  <rect width="334" height="334" rx="50" fill="#141414"></rect>
  <path fill-rule="evenodd" clip-rule="evenodd" d="M166.806 57.3132C171.012 57.3134 174.422 60.7232 174.422 64.9294V91.071C210.26 93.9667 238.946 122.176 242.579 157.801H275.012C279.218 157.801 282.628 161.21 282.628 165.417V165.679C282.628 169.886 279.218 173.296 275.012 173.296H242.562C238.856 208.841 210.204 236.966 174.422 239.857V266C174.422 270.206 171.012 273.617 166.806 273.617C162.6 273.617 159.189 270.206 159.189 266V239.549C124.838 235.354 97.6964 207.826 94.096 173.296H55.4622C51.2558 173.296 47.846 169.886 47.846 165.679V165.417C47.846 161.21 51.2558 157.801 55.4622 157.801H94.0784C97.6085 123.192 124.783 95.5806 159.189 91.3796V64.9294C159.189 60.7231 162.6 57.3132 166.806 57.3132ZM168.328 106.388C135.702 106.389 109.252 132.838 109.252 165.465C109.252 198.091 135.702 224.541 168.328 224.541C200.955 224.541 227.405 198.091 227.405 165.465C227.404 132.838 200.955 106.388 168.328 106.388Z" fill="white"></path>
  <path d="M136.716 135.048C129.126 142.935 124.459 153.655 124.459 165.465C124.459 189.694 144.1 209.335 168.329 209.335C174.256 209.335 179.908 208.16 185.066 206.029C185.696 201.914 184.313 197.965 183.747 196.583C182.488 193.514 178.332 188.267 171.394 180.988C169.542 179.042 169.661 177.548 170.323 173.111L170.399 172.61C170.849 169.57 171.603 167.773 181.831 166.149C187.027 165.326 188.393 167.402 190.287 170.278C190.497 170.597 190.706 170.909 190.921 171.222C192.72 173.853 194.053 174.455 196.067 175.371C196.969 175.78 198.095 176.296 199.603 177.153C203.179 179.196 203.179 181.503 203.179 186.562V187.136C203.179 189.283 202.969 191.168 202.639 192.806C208.622 185.308 212.199 175.804 212.199 165.465C212.199 147.373 201.248 131.84 185.613 125.131C182.58 127.178 178.418 130.08 176.966 132.069C176.223 133.085 175.174 138.275 171.76 138.703C170.866 138.815 169.666 138.737 168.395 138.655C164.987 138.433 160.324 138.134 158.831 142.186C157.883 144.754 157.717 151.725 160.783 155.344C161.274 155.922 161.368 156.991 161.035 158.191C160.597 159.766 159.712 160.725 159.436 160.923C158.907 160.619 157.853 159.395 157.139 158.562C155.418 156.562 153.271 154.071 150.496 153.301C149.486 153.021 148.377 152.79 147.301 152.564C144.29 151.932 140.88 151.215 140.087 149.524C139.509 148.285 139.511 146.58 139.513 144.778C139.513 142.495 139.513 139.912 138.395 137.402C137.962 136.431 137.384 135.658 136.716 135.048ZM168.329 220.302C138.043 220.302 113.491 195.751 113.491 165.465C113.491 135.179 138.043 110.627 168.329 110.627C198.615 110.627 223.166 135.179 223.166 165.465C223.166 195.751 198.615 220.302 168.329 220.302Z" fill="#06B6D4"></path>
  <circle cx="166.53" cy="53.7913" r="14.7913" fill="#06B6D4"></circle>
  <circle cx="166.53" cy="280.122" r="14.7913" fill="#06B6D4"></circle>
  <circle cx="46.7913" cy="165.548" r="14.7913" fill="#06B6D4"></circle>
  <circle cx="287.209" cy="165.548" r="14.7913" fill="#06B6D4"></circle>
  </svg>